<?xml version="1.0" encoding="UTF-8"?>
<svg width="1024" height="1024" viewBox="0 0 1024 1024" xmlns="http://www.w3.org/2000/svg">
  <defs>
    <linearGradient id="bg" x1="0" y1="0" x2="0" y2="1">
      <stop offset="0%" stop-color="#1e1e18"/>
      <stop offset="100%" stop-color="#0d0d0b"/>
    </linearGradient>
    <filter id="shadow" x="-20%" y="-20%" width="140%" height="140%">
      <feDropShadow dx="0" dy="8" stdDeviation="12" flood-color="#000" flood-opacity="0.5"/>
    </filter>
  </defs>

  <path d="M220 120 L804 120 L900 220 L900 760 L512 940 L124 760 L124 220 Z"
        fill="url(#bg)"
        stroke="#c8b98a"
        stroke-width="18"
        filter="url(#shadow)"/>

  <path d="M260 180 L764 180"
        stroke="#c8b98a"
        stroke-width="10"
        stroke-linecap="round"/>

  <text x="512" y="165"
        text-anchor="middle"
        font-family="Impact, Arial Black, sans-serif"
        font-size="64"
        fill="#d8c89a"
        letter-spacing="4">
    24/7 SÖDER
  </text>

  <text x="512" y="235"
        text-anchor="middle"
        font-family="Impact, Arial Black, sans-serif"
        font-size="52"
        fill="#d8c89a"
        letter-spacing="3">
    RESPONSE UNIT
  </text>

  <path d="M220 650 L380 430 L500 560 L640 360 L804 650 Z"
        fill="#2d2d25"
        stroke="#c8b98a"
        stroke-width="10"/>

  <path d="M360 470 L420 390 L470 470 Z"
        fill="#f0f0ea" opacity="0.85"/>

  <path d="M610 410 L680 320 L740 410 Z"
        fill="#f0f0ea" opacity="0.85"/>

  <ellipse cx="710" cy="470" rx="70" ry="28"
           fill="#1a1a16"
           stroke="#c8b98a"
           stroke-width="8"/>

  <rect x="650" y="462" width="120" height="16" fill="#c8b98a"/>
  <line x1="710" y1="420" x2="710" y2="520" stroke="#c8b98a" stroke-width="8"/>
  <line x1="650" y1="430" x2="770" y2="510" stroke="#c8b98a" stroke-width="6"/>
  <line x1="770" y1="430" x2="650" y2="510" stroke="#c8b98a" stroke-width="6"/>

  <circle cx="710" cy="620" r="14" fill="#d8c89a"/>
  <line x1="710" y1="634" x2="710" y2="700" stroke="#d8c89a" stroke-width="8"/>
  <line x1="710" y1="660" x2="680" y2="700" stroke="#d8c89a" stroke-width="8"/>
  <line x1="710" y1="660" x2="740" y2="700" stroke="#d8c89a" stroke-width="8"/>

  <circle cx="400" cy="470" r="120"
          fill="#2a2a22"
          stroke="#c8b98a"
          stroke-width="10"/>

  <path d="M350 430 Q400 360 450 430"
        stroke="#d8c89a"
        stroke-width="10"
        fill="none"
        stroke-linecap="round"/>

  <circle cx="365" cy="455" r="10" fill="#d8c89a"/>
  <circle cx="435" cy="455" r="10" fill="#d8c89a"/>

  <path d="M360 520 Q400 550 440 520"
        stroke="#d8c89a"
        stroke-width="8"
        fill="none"
        stroke-linecap="round"/>

  <path d="M124 760 Q512 900 900 760"
        fill="#11110e"
        stroke="#c8b98a"
        stroke-width="14"/>

  <text x="512" y="835"
        text-anchor="middle"
        font-family="Impact, Arial Black, sans-serif"
        font-size="72"
        fill="#d8c89a"
        letter-spacing="5">
    BERG EXTRACTION
  </text>

  <text x="512" y="900"
        text-anchor="middle"
        font-family="Arial, sans-serif"
        font-size="28"
        fill="#9f9471"
        letter-spacing="3">
    NO MAN LEFT IN BAVARIA
  </text>
</svg>
